<?xml version="1.0" standalone="no"?><!DOCTYPE svg PUBLIC "-//W3C//DTD SVG 1.1//EN" "http://www.w3.org/Graphics/SVG/1.1/DTD/svg11.dtd"><svg class="icon" width="200px" height="200.00px" viewBox="0 0 1024 1024" version="1.1" xmlns="http://www.w3.org/2000/svg"><path d="M720.213333 0H320.853333A107.690667 107.690667 0 0 0 213.333333 107.52v808.96A107.690667 107.690667 0 0 0 320.853333 1024h399.36a107.690667 107.690667 0 0 0 107.52-107.52V107.52A107.690667 107.690667 0 0 0 720.213333 0z m39.253334 916.48c0 21.632-17.621333 39.253333-39.253334 39.253333H320.853333a39.338667 39.338667 0 0 1-39.253333-39.253333V107.52c0-21.632 17.621333-39.253333 39.253333-39.253333h399.36a39.338667 39.338667 0 0 1 39.253334 39.253333v808.96z" fill="#0070f5" /><path d="M622.933333 819.2H418.133333a34.133333 34.133333 0 1 0 0 68.266667h204.8a34.133333 34.133333 0 1 0 0-68.266667zM452.266667 170.666667h136.533333a34.133333 34.133333 0 1 0 0-68.266667h-136.533333a34.133333 34.133333 0 1 0 0 68.266667z" fill="#0070f5" /></svg>